<svg xmlns="http://www.w3.org/2000/svg" viewBox="0 0 480 320" width="480" height="320" role="img">
  <rect width="480" height="320" fill="#F4F5FA"/>
  <rect x="24" y="64" width="196" height="192" rx="8" fill="#E3E6EE"/>
  <g fill="#C4C9D6">
    <circle cx="122" cy="152" r="7"/>
    <path d="M98 174 L118 150 L134 166 L144 156 L156 174 Z"/>
  </g>
  <rect x="248" y="72" width="168" height="16" rx="4" fill="#3A3A4A"/>
  <rect x="248" y="104" width="200" height="9" rx="4" fill="#B4BAC8"/>
  <rect x="248" y="124" width="200" height="9" rx="4" fill="#B4BAC8"/>
  <rect x="248" y="144" width="140" height="9" rx="4" fill="#B4BAC8"/>
  <g fill="#C4C9D6">
    <circle cx="254" cy="174" r="6"/>
    <rect x="268" y="169" width="150" height="9" rx="4"/>
    <circle cx="254" cy="196" r="6"/>
    <rect x="268" y="191" width="150" height="9" rx="4"/>
  </g>
  <rect x="248" y="222" width="104" height="30" rx="8" fill="#F29F67"/>
</svg>
